<svg style="position: absolute; width: 0; height: 0; overflow: hidden;" version="1.1" xmlns="http://www.w3.org/2000/svg" xmlns:xlink="http://www.w3.org/1999/xlink">
<defs>
<symbol id="icon-angle-down" viewBox="0 0 10 6">
  <polygon fill="currentColor" fill-rule="evenodd" points="1.18 -.48 5 3.36 8.82 -.48 10 .7 5 5.7 0 .7"/>
</symbol>
<symbol id="icon-close" viewBox="0 0 12 12">
  <polygon fill="currentColor" fill-rule="evenodd" points="11.82 1.36 7.18 6 11.82 10.64 10.64 11.82 6 7.18 1.36 11.82 .18 10.64 4.82 6 .18 1.36 1.36 .18 6 4.82 10.64 .18"/>
</symbol>
<symbol id="icon-comment" viewBox="0 0 20 17">
  <path fill="currentColor" fill-rule="evenodd" d="M20.0000238,6.85713434 C20.0000238,2.90623678 15.5245721,-0.285731316 10.0000119,-0.285731316 C4.47545176,-0.285731316 0,2.9173975 0,6.85713434 C0,9.12276204 1.47321604,11.1428537 3.77232593,12.4486589 C3.24777173,14.3125004 2.44419934,14.982144 1.7410735,15.7745557 C1.57366259,15.9754488 1.38393022,16.1428597 1.43973386,16.4218779 L1.43973386,16.4330386 C1.4955375,16.7008961 1.72991278,16.8794677 1.97544878,16.8571463 C2.41071716,16.8013426 2.84598554,16.7232175 3.24777173,16.6116103 C5.1785776,16.1205382 6.91965111,15.2053586 8.38170642,13.9107142 C8.90626062,13.9665178 9.45313627,14 10.0000119,14 C15.5245721,14 20.0000238,10.8080319 20.0000238,6.85713434 Z"/>
</symbol>
<symbol id="icon-edit" viewBox="0 0 15 15">
  <path fill="currentColor" fill-rule="evenodd" d="M14.26,3.86 L12.74,5.38 L9.62,2.26 L11.14,0.74 C11.3000008,0.5799992 11.4966655,0.5 11.73,0.5 C11.9633345,0.5 12.1599992,0.5799992 12.32,0.74 L14.26,2.68 C14.4200008,2.8400008 14.5,3.0366655 14.5,3.27 C14.5,3.5033345 14.4200008,3.6999992 14.26,3.86 Z M-0.5,12.38 L8.72,3.16 L11.84,6.28 L2.62,15.5 L-0.5,15.5 L-0.5,12.38 Z"/>
</symbol>
<symbol id="icon-facebook" viewBox="0 0 8 15">
  <path fill="currentColor" fill-rule="evenodd" d="M5,5 L7.5,5 L7.1875,7.5 L5,7.5 L5,15 L1.7578125,15 L1.7578125,7.5 L0,7.5 L0,5 L1.7578125,5 L1.7578125,3.3203125 C1.7578125,2.22655703 2.03124727,1.39974238 2.578125,0.83984375 C3.12500273,0.279945117 4.03645195,0 5.3125,0 L7.5,0 L7.5,2.5 L6.171875,2.5 C5.67708086,2.5 5.35807363,2.57812422 5.21484375,2.734375 C5.07161387,2.89062578 5,3.15103984 5,3.515625 L5,5 Z"/>
</symbol>
<symbol id="icon-feed" viewBox="0 0 15 15">
  <path fill="currentColor" fill-rule="evenodd" d="M2.1875,10.625 C2.78646133,10.625 3.3007791,10.8398416 3.73046875,11.2695312 C4.1601584,11.6992209 4.375,12.2135387 4.375,12.8125 C4.375,13.4114613 4.1601584,13.9257791 3.73046875,14.3554688 C3.3007791,14.7851584 2.78646133,15 2.1875,15 C1.58853867,15 1.0742209,14.7851584 0.64453125,14.3554688 C0.214841602,13.9257791 0,13.4114613 0,12.8125 C0,12.2135387 0.214841602,11.6992209 0.64453125,11.2695312 C1.0742209,10.8398416 1.58853867,10.625 2.1875,10.625 Z M0,5 C2.73438867,5 5.08462559,5.98306309 7.05078125,7.94921875 C9.01693691,9.91537441 10,12.2656113 10,15 L6.875,15 C6.875,12.9166562 6.25000625,11.2500063 5,10 C3.74999375,8.74999375 2.08334375,8.125 0,8.125 L0,5 Z M0,0 C4.1406457,0 7.6757666,1.4648291 10.6054688,4.39453125 C13.5351709,7.3242334 15,10.8593543 15,15 L11.875,15 C11.875,11.66665 10.7291781,8.85417813 8.4375,6.5625 C6.14582187,4.27082187 3.33335,3.125 0,3.125 L0,0 Z"/>
</symbol>
<symbol id="icon-flickr" viewBox="0 0 17 17">
  <path fill="currentColor" fill-rule="evenodd" d="M13.928588,0.285695553 C15.7031437,0.285695553 17.1428776,1.72542941 17.1428776,3.4999851 L17.1428776,14.2142836 C17.1428776,15.9888393 15.7031437,17.4285731 13.928588,17.4285731 L3.21428955,17.4285731 C1.43973386,17.4285731 0,15.9888393 0,14.2142836 L0,3.4999851 C0,1.72542941 1.43973386,0.285695553 3.21428955,0.285695553 L13.928588,0.285695553 Z M7.79018786,8.85713434 C7.79018786,7.55132921 6.72991874,6.49106009 5.42411361,6.49106009 C4.11830848,6.49106009 3.05803936,7.55132921 3.05803936,8.85713434 C3.05803936,10.1629395 4.11830848,11.2232086 5.42411361,11.2232086 C6.72991874,11.2232086 7.79018786,10.1629395 7.79018786,8.85713434 Z M14.0848382,8.85713434 C14.0848382,7.55132921 13.0245691,6.49106009 11.718764,6.49106009 C10.4129588,6.49106009 9.35268972,7.55132921 9.35268972,8.85713434 C9.35268972,10.1629395 10.4129588,11.2232086 11.718764,11.2232086 C13.0245691,11.2232086 14.0848382,10.1629395 14.0848382,8.85713434 Z"/>
</symbol>
<symbol id="icon-folder" viewBox="0 0 17 13">
  <path fill="currentColor" fill-rule="evenodd" d="M6.32,0.32 L8,2 L14.68,2 C15.1333356,2 15.5199984,2.166665 15.84,2.5 C16.1600016,2.833335 16.32,3.2266644 16.32,3.68 L16.32,12 C16.32,12.4533356 16.1600016,12.846665 15.84,13.18 C15.5199984,13.513335 15.1333356,13.68 14.68,13.68 L1.32,13.68 C0.8666644,13.68 0.4800016,13.513335 0.16,13.18 C-0.1600016,12.846665 -0.32,12.4533356 -0.32,12 L-0.32,2 C-0.32,1.5466644 -0.1600016,1.153335 0.16,0.82 C0.4800016,0.486665 0.8666644,0.32 1.32,0.32 L6.32,0.32 Z"/>
</symbol>
<symbol id="icon-google-plus" viewBox="0 0 17 17">
  <path fill="currentColor" fill-rule="evenodd" d="M8.57143879,7.62945431 L8.57143879,10.5758864 L13.437516,10.5758864 C13.2366229,11.8370486 11.9643,14.2700872 8.57143879,14.2700872 C5.64732816,14.2700872 3.25893246,11.8482093 3.25893246,8.85713434 C3.25893246,5.86605935 5.64732816,3.44418146 8.57143879,3.44418146 C10.2343872,3.44418146 11.35046,4.15846803 11.9866214,4.77230804 L14.3192135,2.5290018 C12.823676,1.13391085 10.8817094,0.285695553 8.57143879,0.285695553 C3.82812956,0.285695553 0,4.11382512 0,8.85713434 C0,13.6004436 3.82812956,17.4285731 8.57143879,17.4285731 C13.5156411,17.4285731 16.796895,13.9464261 16.796895,9.05802744 C16.796895,8.48883033 16.7410914,8.06472268 16.6629663,7.62945431 L8.57143879,7.62945431 Z"/>
</symbol>
<symbol id="icon-instagram" viewBox="0 0 17 17">
  <path fill="currentColor" fill-rule="evenodd" d="M11.4285851,8.85713434 C11.4285851,7.28347175 10.1451014,5.99998808 8.57143879,5.99998808 C6.9977762,5.99998808 5.71429253,7.28347175 5.71429253,8.85713434 C5.71429253,10.4307969 6.9977762,11.7142806 8.57143879,11.7142806 C10.1451014,11.7142806 11.4285851,10.4307969 11.4285851,8.85713434 Z M12.9687655,8.85713434 C12.9687655,11.290173 11.0044774,13.254461 8.57143879,13.254461 C6.13840017,13.254461 4.17411212,11.290173 4.17411212,8.85713434 C4.17411212,6.42409573 6.13840017,4.45980767 8.57143879,4.45980767 C11.0044774,4.45980767 12.9687655,6.42409573 12.9687655,8.85713434 Z M14.174124,4.28123603 C14.174124,4.85043314 13.7165342,5.30802297 13.1473371,5.30802297 C12.57814,5.30802297 12.1205502,4.85043314 12.1205502,4.28123603 C12.1205502,3.71203892 12.57814,3.25444909 13.1473371,3.25444909 C13.7165342,3.25444909 14.174124,3.71203892 14.174124,4.28123603 Z M8.57143879,1.82587596 C7.3214373,1.82587596 4.64286268,1.72542941 3.51562919,2.17185852 C3.12500373,2.3281087 2.83482481,2.51784107 2.53348516,2.81918072 C2.23214552,3.12052036 2.04241315,3.41069928 1.88616296,3.80132474 C1.43973386,4.92855823 1.54018041,7.60713285 1.54018041,8.85713434 C1.54018041,10.1071358 1.43973386,12.7857105 1.88616296,13.9129439 C2.04241315,14.3035694 2.23214552,14.5937483 2.53348516,14.895088 C2.83482481,15.1964276 3.12500373,15.38616 3.51562919,15.5424102 C4.64286268,15.9888393 7.3214373,15.8883927 8.57143879,15.8883927 C9.82144028,15.8883927 12.5000149,15.9888393 13.6272484,15.5424102 C14.0178739,15.38616 14.3080528,15.1964276 14.6093924,14.895088 C14.9107321,14.5937483 15.1004644,14.3035694 15.2567146,13.9129439 C15.7031437,12.7857105 15.6026972,10.1071358 15.6026972,8.85713434 C15.6026972,7.60713285 15.7031437,4.92855823 15.2567146,3.80132474 C15.1004644,3.41069928 14.9107321,3.12052036 14.6093924,2.81918072 C14.3080528,2.51784107 14.0178739,2.3281087 13.6272484,2.17185852 C12.5000149,1.72542941 9.82144028,1.82587596 8.57143879,1.82587596 Z M17.1428776,8.85713434 C17.1428776,10.0401715 17.1540383,11.2120479 17.0870739,12.395085 C17.0201096,13.7678545 16.7076092,14.9843738 15.7031437,15.9888393 C14.6986782,16.9933048 13.4821589,17.3058051 12.1093894,17.3727695 C10.9263523,17.4397339 9.75447591,17.4285731 8.57143879,17.4285731 C7.38840166,17.4285731 6.21652527,17.4397339 5.03348814,17.3727695 C3.66071865,17.3058051 2.44419934,16.9933048 1.43973386,15.9888393 C0.435268376,14.9843738 0.122768003,13.7678545 0.055803638,12.395085 C-0.0111607276,11.2120479 0,10.0401715 0,8.85713434 C0,7.67409722 -0.0111607276,6.50222082 0.055803638,5.3191837 C0.122768003,3.9464142 0.435268376,2.7298949 1.43973386,1.72542941 C2.44419934,0.720963929 3.66071865,0.408463556 5.03348814,0.341499191 C6.21652527,0.274534825 7.38840166,0.285695553 8.57143879,0.285695553 C9.75447591,0.285695553 10.9263523,0.274534825 12.1093894,0.341499191 C13.4821589,0.408463556 14.6986782,0.720963929 15.7031437,1.72542941 C16.7076092,2.7298949 17.0201096,3.9464142 17.0870739,5.3191837 C17.1540383,6.50222082 17.1428776,7.67409722 17.1428776,8.85713434 Z"/>
</symbol>
<symbol id="icon-linkedin" viewBox="0 0 17 16">
  <path fill="currentColor" fill-rule="evenodd" d="M3.89509393,4.83257717 L0.212053824,4.83257717 L0.212053824,15.8928582 L3.89509393,15.8928582 L3.89509393,4.83257717 Z M4.12946921,1.41739452 C4.11830848,0.334803946 3.33705755,-0.491089895 2.07589533,-0.491089895 C0.825893842,-0.491089895 0,0.334803946 0,1.41739452 C0,2.47766364 0.792411659,3.32587894 2.03125242,3.32587894 L2.05357388,3.32587894 C3.33705755,3.32587894 4.14062994,2.47766364 4.12946921,1.41739452 Z M9.59822573,6.40462334 L9.59822573,4.83257717 L5.92634635,4.83257717 C5.92634635,4.83257717 5.97098926,5.87052483 5.92634635,15.8928582 L9.59822573,15.8928582 L9.59822573,9.72097585 C9.59822573,9.38615402 9.63170791,9.06249292 9.72099373,8.81695691 C9.98885119,8.15847399 10.5915305,7.4776696 11.6071567,7.4776696 C12.9352833,7.4776696 13.4709982,8.49329581 13.4709982,9.97767258 L13.4709982,15.8928582 L17.1428776,15.8928582 L17.1428776,9.55356494 C17.1428776,6.16070375 15.3348397,4.57588043 12.9129618,4.57588043 C10.9567698,4.57588043 10.0827352,5.64721633 9.59822573,6.40462334 L9.59822573,6.40462334 Z"/>
</symbol>
<symbol id="icon-location" viewBox="0 0 12 18">
  <path fill="currentColor" fill-rule="evenodd" d="M6,8.56 C6.3733352,8.56 6.7199984,8.4666676 7.04,8.28 C7.3600016,8.0933324 7.6133324,7.8433349 7.8,7.53 C7.9866676,7.2166651 8.08,6.8733352 8.08,6.5 C8.08,6.1266648 7.9866676,5.7800016 7.8,5.46 C7.6133324,5.1399984 7.3600016,4.8866676 7.04,4.7 C6.7199984,4.5133324 6.3733352,4.42 6,4.42 C5.6266648,4.42 5.2833349,4.5133324 4.97,4.7 C4.6566651,4.8866676 4.4066676,5.1399984 4.22,5.46 C4.0333324,5.7800016 3.94,6.1266648 3.94,6.5 C3.94,7.0733362 4.139998,7.559998 4.54,7.96 C4.940002,8.360002 5.4266638,8.56 6,8.56 Z M6,0.68 C7.066672,0.68 8.0466622,0.9399974 8.94,1.46 C9.8200044,1.9800026 10.5199974,2.6799956 11.04,3.56 C11.5600026,4.4533378 11.82,5.433328 11.82,6.5 C11.82,7.3133374 11.620002,8.2466614 11.22,9.3 C10.8733316,10.1933378 10.3933364,11.1599948 9.78,12.2 C9.2733308,13.0266708 8.6933366,13.8866622 8.04,14.78 C7.5866644,15.4066698 7.1066692,16.019997 6.6,16.62 L6,17.32 L5.4,16.62 C4.8933308,16.019997 4.4133356,15.4066698 3.96,14.78 C3.3066634,13.8866622 2.7266692,13.0266708 2.22,12.2 C1.6066636,11.1599948 1.1266684,10.1933378 0.78,9.3 C0.379998,8.2466614 0.18,7.3133374 0.18,6.5 C0.18,5.433328 0.4399974,4.4533378 0.96,3.56 C1.4800026,2.6799956 2.1799956,1.9800026 3.06,1.46 C3.9533378,0.9399974 4.933328,0.68 6,0.68 Z"/>
</symbol>
<symbol id="icon-mail" viewBox="0 0 17 13">
  <path fill="currentColor" fill-rule="evenodd" d="M14.68,3.68 L14.68,2 L8,6.18 L1.32,2 L1.32,3.68 L8,7.82 L14.68,3.68 Z M14.68,0.32 C15.1333356,0.32 15.5199984,0.486665 15.84,0.82 C16.1600016,1.153335 16.32,1.5466644 16.32,2 L16.32,12 C16.32,12.4533356 16.1600016,12.846665 15.84,13.18 C15.5199984,13.513335 15.1333356,13.68 14.68,13.68 L1.32,13.68 C0.8666644,13.68 0.4800016,13.513335 0.16,13.18 C-0.1600016,12.846665 -0.32,12.4533356 -0.32,12 L-0.32,2 C-0.32,1.5466644 -0.1600016,1.153335 0.16,0.82 C0.4800016,0.486665 0.8666644,0.32 1.32,0.32 L14.68,0.32 Z"/>
</symbol>
<symbol id="icon-pinterest" viewBox="0 0 14 19">
  <path fill="currentColor" fill-rule="evenodd" d="M0,6.66295437 C0,8.12500969 0.580357835,10.2567087 2.17634188,10.7366199 C2.23214552,10.7477807 2.31027061,10.7701021 2.36607425,10.7701021 C2.73437826,10.7701021 2.94643208,9.74331519 2.94643208,9.45313627 C2.94643208,9.10715371 2.0647346,8.37054569 2.0647346,6.93081183 C2.0647346,3.93973684 4.34152303,1.8191986 7.28795512,1.8191986 C9.82144028,1.8191986 11.6964425,3.25893246 11.6964425,5.9040249 C11.6964425,7.87947368 10.9040309,11.5848352 8.33706351,11.5848352 C7.41072312,11.5848352 6.61831146,10.9151916 6.61831146,9.95536901 C6.61831146,8.54911733 7.60045549,7.18750857 7.60045549,5.73661398 C7.60045549,4.8549165 7.09822275,4.14062994 6.16072163,4.14062994 C4.88839868,4.14062994 4.10714775,5.56920307 4.10714775,6.69643655 C4.10714775,7.3214373 4.18527285,8.01340241 4.46429104,8.58259952 C3.95089757,10.7924236 2.90178917,14.0848382 2.90178917,16.3616266 C2.90178917,17.0647525 3.00223572,17.7567176 3.06920009,18.4598434 L3.16964664,18.5714507 L3.32589682,18.5156471 C5.20089906,15.9486797 5.13393469,15.446447 5.98214999,12.087068 C6.43973982,12.9576047 7.62277694,13.4263553 8.56027806,13.4263553 C12.5111756,13.4263553 14.2857313,9.57590427 14.2857313,6.10491799 C14.2857313,2.41071716 11.0937632,0 7.58929476,0 C3.77232593,0 0,2.54464589 0,6.66295437 Z"/>
</symbol>
<symbol id="icon-phone" viewBox="0 0 16 16">
  <path fill="currentColor" fill-rule="evenodd" d="M3.5,6.98 C4.1133364,8.1533392 4.8933286,9.2133286 5.84,10.16 C6.7866714,11.1066714 7.8466608,11.8866636 9.02,12.5 L10.86,10.66 C10.9666672,10.5399994 11.0999992,10.4600002 11.26,10.42 C11.4200008,10.3799998 11.5733326,10.393333 11.72,10.46 C12.6000044,10.7666682 13.5866612,10.92 14.68,10.92 C14.9066678,10.92 15.0999992,10.9999992 15.26,11.16 C15.4200008,11.3200008 15.5,11.5133322 15.5,11.74 L15.5,14.68 C15.5,14.9066678 15.4200008,15.0999992 15.26,15.26 C15.0999992,15.4200008 14.9066678,15.5 14.68,15.5 C12.7599904,15.5 10.9200088,15.1266704 9.16,14.38 C7.4666582,13.6599964 5.9666732,12.6466732 4.66,11.34 C3.3533268,10.0333268 2.3400036,8.5333418 1.62,6.84 C0.8733296,5.0799912 0.5,3.2400096 0.5,1.32 C0.5,1.0933322 0.5799992,0.9000008 0.74,0.74 C0.9000008,0.5799992 1.0933322,0.5 1.32,0.5 L4.26,0.5 C4.4866678,0.5 4.6799992,0.5799992 4.84,0.74 C5.0000008,0.9000008 5.08,1.0933322 5.08,1.32 C5.08,2.4133388 5.2333318,3.3999956 5.54,4.28 C5.5800002,4.4266674 5.5866668,4.5799992 5.56,4.74 C5.5333332,4.9000008 5.4600006,5.0333328 5.34,5.14 L3.5,6.98 Z"/>
</symbol>
<symbol id="icon-search" viewBox="0 0 15 15">
  <path fill="currentColor" fill-rule="evenodd" d="M14.8828125,12.6171875 C15.0651051,12.7994801 15.0651051,12.9817699 14.8828125,13.1640625 L13.203125,14.8828125 C13.1249996,14.9609379 13.020834,15 12.890625,15 C12.7864578,15 12.6953129,14.9609379 12.6171875,14.8828125 L9.3359375,11.5234375 C8.34634922,12.1223988 7.30469297,12.421875 6.2109375,12.421875 C4.5182207,12.421875 3.05990195,11.8164123 1.8359375,10.6054688 C0.611973047,9.3945252 0,7.92969609 0,6.2109375 C0,4.49217891 0.611973047,3.0273498 1.8359375,1.81640625 C3.05990195,0.605462695 4.5182207,0 6.2109375,0 C7.9036543,0 9.3554627,0.605462695 10.5664062,1.81640625 C11.7773498,3.0273498 12.3828125,4.49217891 12.3828125,6.2109375 C12.3828125,7.30469297 12.1093777,8.32030781 11.5625,9.2578125 L14.8828125,12.6171875 Z M6.2109375,2.421875 C5.16926563,2.421875 4.27734746,2.79296504 3.53515625,3.53515625 C2.79296504,4.27734746 2.421875,5.16926563 2.421875,6.2109375 C2.421875,7.25260938 2.79296504,8.14452754 3.53515625,8.88671875 C4.27734746,9.62890996 5.16926563,10 6.2109375,10 C7.25260938,10 8.13801719,9.62890996 8.8671875,8.88671875 C9.59635781,8.14452754 9.9609375,7.25260938 9.9609375,6.2109375 C9.9609375,5.16926563 9.59635781,4.27734746 8.8671875,3.53515625 C8.13801719,2.79296504 7.25260938,2.421875 6.2109375,2.421875 Z"/>
</symbol>
<symbol id="icon-skype" viewBox="0 0 17 17">
  <path fill="currentColor" fill-rule="evenodd" d="M13.0915335,10.7209758 C13.0915335,8.77900925 11.2053705,8.10936559 9.62054718,7.75222231 L8.45983151,7.48436485 C7.61161622,7.28347175 6.97545474,7.13838229 6.97545474,6.49106009 C6.97545474,5.89954153 7.60045549,5.63168407 8.58259952,5.63168407 C10.3348337,5.63168407 10.3683159,6.91516774 11.4509065,6.91516774 C12.1763538,6.91516774 12.6116222,6.34597063 12.6116222,5.69864843 C12.6116222,4.41516476 10.4799232,3.57811019 8.37054569,3.57811019 C6.43973982,3.57811019 4.19643357,4.41516476 4.19643357,6.68079246 C4.19643357,8.5557947 5.44643506,9.22543835 7.07590129,9.61606382 L8.70536752,10.01785 C9.69867228,10.263386 10.3125123,10.3749933 10.3125123,11.0892799 C10.3125123,11.658477 9.67635082,12.0937453 8.69420679,12.0937453 C6.62947219,12.0937453 6.51786491,10.3749933 5.32366706,10.3749933 C4.54241613,10.3749933 4.19643357,10.9330297 4.19643357,11.5468697 C4.19643357,12.9196392 6.29465036,14.0357119 8.80581407,14.0357119 C10.9040309,14.0357119 13.0915335,12.9866036 13.0915335,10.7209758 Z M17.1428776,13.1428537 C17.1428776,15.508928 15.2232324,17.4285731 12.8571582,17.4285731 C11.8750142,17.4285731 10.9709952,17.0937513 10.2455479,16.5357149 C9.709833,16.6473222 9.1406359,16.7142866 8.57143879,16.7142866 C4.22991576,16.7142866 0.714286566,13.1986574 0.714286566,8.85713434 C0.714286566,8.28793724 0.781250931,7.71874013 0.892858207,7.1830252 C0.334821828,6.45757791 0,5.55355898 0,4.57141495 C0,2.2053407 1.91964515,0.285695553 4.28571939,0.285695553 C5.26786342,0.285695553 6.17188236,0.620517381 6.89732965,1.17855376 C7.43304458,1.06694648 8.00224168,0.999982119 8.57143879,0.999982119 C12.9129618,0.999982119 16.428591,4.51561131 16.428591,8.85713434 C16.428591,9.42633145 16.3616266,9.99552856 16.2500194,10.5312435 C16.8080558,11.2566908 17.1428776,12.1607097 17.1428776,13.1428537 Z"/>
</symbol>
<symbol id="icon-tags" viewBox="0 0 19 19">
  <path fill="currentColor" d="M18.738,9.545 C19.127,9.934 19.127,10.57 18.738,10.959 L10.96,18.738 C10.571,19.127 9.935,19.127 9.546,18.738 L0.707,9.9 C0.318,9.512 0,8.743 0,8.193 L0,1 C0,0.45 0.45,0 1,0 L8.193,0 C8.743,0 9.511,0.318 9.9,0.707 L18.738,9.545 Z M3.27,3.27 C2.54,4 2.54,5.188 3.27,5.921 C4,6.652 5.188,6.652 5.922,5.922 C6.652,5.192 6.651,4.003 5.921,3.27 C5.187,2.54 4,2.539 3.27,3.27 Z"/>
</symbol>
<symbol id="icon-twitter" viewBox="0 0 18 15">
  <path fill="currentColor" fill-rule="evenodd" d="M18.4375,1.796875 C17.9687477,2.52604531 17.3437539,3.17708047 16.5625,3.75 L16.5625,4.21875 C16.5625,6.95313867 15.5794369,9.43358262 13.6132812,11.6601562 C11.6471256,13.8867299 9.03647461,15 5.78125,15 C3.69790625,15 1.77084219,14.4270891 0,13.28125 C0.41666875,13.3333336 0.716144922,13.359375 0.8984375,13.359375 C2.64323789,13.359375 4.20572227,12.8125055 5.5859375,11.71875 C4.7786418,11.6927082 4.04948242,11.4388045 3.3984375,10.9570312 C2.74739258,10.475258 2.30468867,9.85677461 2.0703125,9.1015625 C2.38281406,9.15364609 2.61718672,9.1796875 2.7734375,9.1796875 C3.03385547,9.1796875 3.37239375,9.12760469 3.7890625,9.0234375 C2.9296832,8.84114492 2.20703418,8.40495137 1.62109375,7.71484375 C1.03515332,7.02473613 0.7421875,6.22396289 0.7421875,5.3125 L0.7421875,5.2734375 C1.31510703,5.58593906 1.88801797,5.7421875 2.4609375,5.7421875 C1.34114023,5.01301719 0.78125,3.95834023 0.78125,2.578125 C0.78125,1.92708008 0.950519141,1.30208633 1.2890625,0.703125 C3.29428086,3.1770957 5.88540078,4.49218672 9.0625,4.6484375 C9.01041641,4.46614492 8.984375,4.17968945 8.984375,3.7890625 C8.984375,2.72134883 9.34895469,1.82292031 10.078125,1.09375 C10.8072953,0.364579688 11.7057238,0 12.7734375,0 C13.8411512,0 14.7526004,0.403641797 15.5078125,1.2109375 C16.2890664,1.08072852 17.09635,0.768231641 17.9296875,0.2734375 C17.6692695,1.18490039 17.1093793,1.88801836 16.25,2.3828125 C17.0572957,2.30468711 17.7864551,2.10937656 18.4375,1.796875 Z"/>
</symbol>
<symbol id="icon-youtube" viewBox="0 0 20 14">
  <path fill="currentColor" fill-rule="evenodd" d="M7.93527732,9.44642314 L13.3370695,6.65624125 L7.93527732,3.83257717 L7.93527732,9.44642314 Z M10.0000119,-0.17412404 C14.2076062,-0.17412404 16.9977881,0.0267690569 16.9977881,0.0267690569 C17.3884136,0.0714119673 18.2477896,0.0714119673 19.0067191,0.874984354 C19.0067191,0.874984354 19.6205591,1.47766364 19.7991307,2.86159386 C20.0111846,4.47989937 20.0000238,6.09820487 20.0000238,6.09820487 L20.0000238,7.61606382 C20.0000238,7.61606382 20.0111846,9.23436932 19.7991307,10.8526748 C19.6205591,12.2254443 19.0067191,12.8392843 19.0067191,12.8392843 C18.2477896,13.631696 17.3884136,13.631696 16.9977881,13.6763389 C16.9977881,13.6763389 14.2076062,13.8883927 10.0000119,13.8883927 C4.79911286,13.8437498 3.20312882,13.6874996 3.20312882,13.6874996 C2.75669971,13.6093745 1.75223423,13.631696 0.993304756,12.8392843 C0.993304756,12.8392843 0.379464738,12.2254443 0.200893097,10.8526748 C-0.0111607276,9.23436932 1.28884533e-17,7.61606382 1.28884533e-17,7.61606382 L1.28884533e-17,6.09820487 C1.28884533e-17,6.09820487 -0.0111607276,4.47989937 0.200893097,2.86159386 C0.379464738,1.47766364 0.993304756,0.874984354 0.993304756,0.874984354 C1.75223423,0.0714119673 2.61161026,0.0714119673 3.00223572,0.0267690569 C3.00223572,0.0267690569 5.79241762,-0.17412404 10.0000119,-0.17412404 Z"/>
</symbol>
</defs>
</svg>
