<svg style="position: absolute; width: 0; height: 0; overflow: hidden;" version="1.1" xmlns="http://www.w3.org/2000/svg" xmlns:xlink="http://www.w3.org/1999/xlink">
<defs>
<symbol id="icon-edit" viewBox="0 0 18 18">
  <path d="M14.8828125,6.15337173 L5.1171875,15.9580592 L1.5625,12.4033717 L11.3671875,2.63774673 L14.8828125,6.15337173 Z M17.1875,2.20805923 C17.4218762,2.4424354 17.5325521,2.72889087 17.5195312,3.06743423 C17.5065104,3.40597759 17.369793,3.70545376 17.109375,3.96587173 L15.3515625,5.72368423 L11.796875,2.16899673 L13.5546875,0.411184229 C13.8151055,0.15076626 14.1145816,0.0140488774 14.453125,0.00102797898 C14.7916684,-0.0119929195 15.0781238,0.0986830571 15.3125,0.333059229 L17.1875,2.20805923 Z M1.25,12.9502467 L4.5703125,16.2705592 L0,17.5205592 L1.25,12.9502467 Z"/>
</symbol>
<symbol id="icon-comment" viewBox="0 0 20 18">
<path d="M20,7.85714286 C20,9.15179219 19.5535759,10.3478368 18.6607143,11.4453125 C17.7678527,12.5427882 16.5550672,13.409595 15.0223214,14.0457589 C13.4895757,14.6819228 11.8154853,15 10,15 C9.47916406,15 8.93973493,14.9702384 8.38169643,14.9107143 C6.90847478,16.2128041 5.19718237,17.1130927 3.24776786,17.6116071 C2.8831827,17.7157743 2.4590798,17.7976187 1.97544643,17.8571429 C1.8489577,17.8720239 1.73549157,17.8385421 1.63504464,17.7566964 C1.53459771,17.6748508 1.4694942,17.566965 1.43973214,17.4330357 L1.43973214,17.421875 C1.4174106,17.3921129 1.4155505,17.3474705 1.43415179,17.2879464 C1.45275307,17.2284223 1.46019347,17.1912203 1.45647321,17.1763393 C1.45275296,17.1614583 1.46949386,17.1261164 1.50669643,17.0703125 L1.57366071,16.9698661 C1.58110123,16.9587053 1.60714263,16.9270836 1.65178571,16.875 C1.69642879,16.8229164 1.7261904,16.7894346 1.74107143,16.7745536 C1.79315502,16.7150295 1.90848125,16.5866825 2.08705357,16.3895089 C2.26562589,16.1923353 2.39397282,16.0509677 2.47209821,15.9654018 C2.5502236,15.8798359 2.66554983,15.7328879 2.81808036,15.5245536 C2.97061088,15.3162192 3.09151741,15.126489 3.18080357,14.9553571 C3.27008973,14.7842253 3.37053516,14.5647335 3.48214286,14.296875 C3.59375056,14.0290165 3.69047578,13.7462812 3.77232143,13.4486607 C2.60416083,12.786455 1.6834111,11.9680108 1.01004464,10.9933036 C0.336678181,10.0185963 0,8.97321987 0,7.85714286 C0,6.88987612 0.264134263,5.96540619 0.792410714,5.08370536 C1.32068717,4.20200452 2.03124554,3.44122344 2.92410714,2.80133929 C3.81696875,2.16145513 4.88094621,1.65364771 6.11607143,1.27790179 C7.35119665,0.902155859 8.64582656,0.714285714 10,0.714285714 C11.8154853,0.714285714 13.4895757,1.03236289 15.0223214,1.66852679 C16.5550672,2.30469068 17.7678527,3.17149749 18.6607143,4.26897321 C19.5535759,5.36644894 20,6.56249353 20,7.85714286 Z"/>
</symbol>
<symbol id="icon-search" viewBox="0 0 30 32">
<path d="M20.571 14.857q0-3.304-2.348-5.652t-5.652-2.348-5.652 2.348-2.348 5.652 2.348 5.652 5.652 2.348 5.652-2.348 2.348-5.652zM29.714 29.714q0 0.929-0.679 1.607t-1.607 0.679q-0.964 0-1.607-0.679l-6.125-6.107q-3.196 2.214-7.125 2.214-2.554 0-4.884-0.991t-4.018-2.679-2.679-4.018-0.991-4.884 0.991-4.884 2.679-4.018 4.018-2.679 4.884-0.991 4.884 0.991 4.018 2.679 2.679 4.018 0.991 4.884q0 3.929-2.214 7.125l6.125 6.125q0.661 0.661 0.661 1.607z"></path>
</symbol>
<symbol id="icon-close" viewBox="0 0 12 13">
<polygon points="11.741 1.852 7.092 6.5 11.741 11.148 10.569 12.32 5.92 7.672 1.272 12.32 .1 11.148 4.748 6.5 .1 1.852 1.272 .68 5.92 5.328 10.569 .68"/>
</symbol>
<symbol id="icon-angle-down" viewBox="0 0 21 32">
<path d="M19.196 13.143q0 0.232-0.179 0.411l-8.321 8.321q-0.179 0.179-0.411 0.179t-0.411-0.179l-8.321-8.321q-0.179-0.179-0.179-0.411t0.179-0.411l0.893-0.893q0.179-0.179 0.411-0.179t0.411 0.179l7.018 7.018 7.018-7.018q0.179-0.179 0.411-0.179t0.411 0.179l0.893 0.893q0.179 0.179 0.179 0.411z"></path>
</symbol>
<symbol id="icon-folder-open" viewBox="0 0 34 32">
<path d="M33.554 17q0 0.554-0.554 1.179l-6 7.071q-0.768 0.911-2.152 1.545t-2.563 0.634h-19.429q-0.607 0-1.080-0.232t-0.473-0.768q0-0.554 0.554-1.179l6-7.071q0.768-0.911 2.152-1.545t2.563-0.634h19.429q0.607 0 1.080 0.232t0.473 0.768zM27.429 10.857v2.857h-14.857q-1.679 0-3.518 0.848t-2.929 2.134l-6.107 7.179q0-0.071-0.009-0.223t-0.009-0.223v-17.143q0-1.643 1.179-2.821t2.821-1.179h5.714q1.643 0 2.821 1.179t1.179 2.821v0.571h9.714q1.643 0 2.821 1.179t1.179 2.821z"></path>
</symbol>
<symbol id="icon-tags" viewBox="0 0 22 18">
  <path d="M5,3.85714286 C5,3.46279565 4.86049247,3.12611747 4.58147321,2.84709821 C4.30245396,2.56807896 3.96577578,2.42857143 3.57142857,2.42857143 C3.17708136,2.42857143 2.84040318,2.56807896 2.56138393,2.84709821 C2.28236468,3.12611747 2.14285714,3.46279565 2.14285714,3.85714286 C2.14285714,4.25149007 2.28236468,4.58816825 2.56138393,4.8671875 C2.84040318,5.14620675 3.17708136,5.28571429 3.57142857,5.28571429 C3.96577578,5.28571429 4.30245396,5.14620675 4.58147321,4.8671875 C4.86049247,4.58816825 5,4.25149007 5,3.85714286 Z M16.9084821,10.2857143 C16.9084821,10.6800615 16.7708347,11.0148796 16.4955357,11.2901786 L11.015625,16.78125 C10.725445,17.056549 10.3869067,17.1941964 10,17.1941964 C9.60565279,17.1941964 9.27083471,17.056549 8.99553571,16.78125 L1.015625,8.79017857 C0.732885491,8.51487958 0.492932533,8.13913929 0.295758929,7.66294643 C0.0985853237,7.18675357 0,6.75149007 0,6.35714286 L0,1.71428571 C0,1.32737902 0.141367634,0.992560938 0.424107143,0.709821429 C0.706846652,0.42708192 1.04166473,0.285714286 1.42857143,0.285714286 L6.07142857,0.285714286 C6.46577578,0.285714286 6.90103929,0.384299609 7.37723214,0.581473214 C7.853425,0.778646819 8.23288549,1.01859978 8.515625,1.30133929 L16.4955357,9.27008929 C16.7708347,9.56026931 16.9084821,9.89880759 16.9084821,10.2857143 Z"/>
</symbol>
<symbol id="icon-chain" viewBox="0 0 30 32">
<path d="M26 21.714q0-0.714-0.5-1.214l-3.714-3.714q-0.5-0.5-1.214-0.5-0.75 0-1.286 0.571 0.054 0.054 0.339 0.33t0.384 0.384 0.268 0.339 0.232 0.455 0.063 0.491q0 0.714-0.5 1.214t-1.214 0.5q-0.268 0-0.491-0.063t-0.455-0.232-0.339-0.268-0.384-0.384-0.33-0.339q-0.589 0.554-0.589 1.304 0 0.714 0.5 1.214l3.679 3.696q0.482 0.482 1.214 0.482 0.714 0 1.214-0.464l2.625-2.607q0.5-0.5 0.5-1.196zM13.446 9.125q0-0.714-0.5-1.214l-3.679-3.696q-0.5-0.5-1.214-0.5-0.696 0-1.214 0.482l-2.625 2.607q-0.5 0.5-0.5 1.196 0 0.714 0.5 1.214l3.714 3.714q0.482 0.482 1.214 0.482 0.75 0 1.286-0.554-0.054-0.054-0.339-0.33t-0.384-0.384-0.268-0.339-0.232-0.455-0.063-0.491q0-0.714 0.5-1.214t1.214-0.5q0.268 0 0.491 0.063t0.455 0.232 0.339 0.268 0.384 0.384 0.33 0.339q0.589-0.554 0.589-1.304zM29.429 21.714q0 2.143-1.518 3.625l-2.625 2.607q-1.482 1.482-3.625 1.482-2.161 0-3.643-1.518l-3.679-3.696q-1.482-1.482-1.482-3.625 0-2.196 1.571-3.732l-1.571-1.571q-1.536 1.571-3.714 1.571-2.143 0-3.643-1.5l-3.714-3.714q-1.5-1.5-1.5-3.643t1.518-3.625l2.625-2.607q1.482-1.482 3.625-1.482 2.161 0 3.643 1.518l3.679 3.696q1.482 1.482 1.482 3.625 0 2.196-1.571 3.732l1.571 1.571q1.536-1.571 3.714-1.571 2.143 0 3.643 1.5l3.714 3.714q1.5 1.5 1.5 3.643z"></path>
</symbol>

<symbol id="icon-feed" viewBox="0 0 14 14">
<path d="M0.319999695,5.39999999 C1.82667389,5.39999999 3.21999329,5.77332959 4.49999969,6.51999999 C5.75333929,7.25333699 6.74666269,8.24666039 7.47999969,9.49999999 C8.22667009,10.7800064 8.59999969,12.1733258 8.59999969,13.68 L6.21999969,13.68 C6.21999969,12.613328 5.95333569,11.6266712 5.41999969,10.72 C4.88666369,9.82666219 4.17333749,9.11333599 3.27999969,8.57999999 C2.37332849,8.04666399 1.38667169,7.77999999 0.319999695,7.77999999 L0.319999695,5.39999999 Z M0.319999695,0.699999988 C2.06667509,0.699999988 3.74665829,1.03999659 5.35999969,1.71999999 C6.90667409,2.38666999 8.27999369,3.31999399 9.47999969,4.51999999 C10.6800057,5.72000599 11.6133297,7.09332559 12.2799997,8.63999999 C12.9600031,10.2533414 13.2999997,11.9333246 13.2999997,13.68 L10.9399997,13.68 C10.9399997,12.2399928 10.6600025,10.8600066 10.0999997,9.53999999 C9.56666369,8.27332699 8.81000459,7.15000489 7.82999969,6.16999999 C6.84999479,5.18999509 5.72667269,4.43333599 4.45999969,3.89999999 C3.13999309,3.33999719 1.76000689,3.05999999 0.319999695,3.05999999 L0.319999695,0.699999988 Z M0.319999695,11.84 C0.319999695,11.3333308 0.499997895,10.9066684 0.859999695,10.56 C1.22000149,10.2133316 1.65333049,10.04 2.15999969,10.04 C2.66666889,10.04 3.09333129,10.2133316 3.43999969,10.56 C3.78666809,10.9066684 3.95999969,11.3333308 3.95999969,11.84 C3.95999969,12.3466692 3.78666809,12.7799982 3.43999969,13.14 C3.09333129,13.5000018 2.66666889,13.68 2.15999969,13.68 C1.65333049,13.68 1.22000149,13.5000018 0.859999695,13.14 C0.499997895,12.7799982 0.319999695,12.3466692 0.319999695,11.84 Z"/>
</symbol>
<symbol id="icon-mail" viewBox="0 0 32 32">
<path d="M29.714 26.857v-13.714q-0.571 0.643-1.232 1.179-4.786 3.679-7.607 6.036-0.911 0.768-1.482 1.196t-1.545 0.866-1.83 0.438h-0.036q-0.857 0-1.83-0.438t-1.545-0.866-1.482-1.196q-2.821-2.357-7.607-6.036-0.661-0.536-1.232-1.179v13.714q0 0.232 0.17 0.402t0.402 0.17h26.286q0.232 0 0.402-0.17t0.17-0.402zM29.714 8.089v-0.438t-0.009-0.232-0.054-0.223-0.098-0.161-0.161-0.134-0.25-0.045h-26.286q-0.232 0-0.402 0.17t-0.17 0.402q0 3 2.625 5.071 3.446 2.714 7.161 5.661 0.107 0.089 0.625 0.527t0.821 0.67 0.795 0.563 0.902 0.491 0.768 0.161h0.036q0.357 0 0.768-0.161t0.902-0.491 0.795-0.563 0.821-0.67 0.625-0.527q3.714-2.946 7.161-5.661 0.964-0.768 1.795-2.063t0.83-2.348zM32 7.429v19.429q0 1.179-0.839 2.018t-2.018 0.839h-26.286q-1.179 0-2.018-0.839t-0.839-2.018v-19.429q0-1.179 0.839-2.018t2.018-0.839h26.286q1.179 0 2.018 0.839t0.839 2.018z"></path>
</symbol>
<symbol id="icon-twitter" viewBox="0 0 30 32">
<path d="M28.929 7.286q-1.196 1.75-2.893 2.982 0.018 0.25 0.018 0.75 0 2.321-0.679 4.634t-2.063 4.437-3.295 3.759-4.607 2.607-5.768 0.973q-4.839 0-8.857-2.589 0.625 0.071 1.393 0.071 4.018 0 7.161-2.464-1.875-0.036-3.357-1.152t-2.036-2.848q0.589 0.089 1.089 0.089 0.768 0 1.518-0.196-2-0.411-3.313-1.991t-1.313-3.67v-0.071q1.214 0.679 2.607 0.732-1.179-0.786-1.875-2.054t-0.696-2.75q0-1.571 0.786-2.911 2.161 2.661 5.259 4.259t6.634 1.777q-0.143-0.679-0.143-1.321 0-2.393 1.688-4.080t4.080-1.688q2.5 0 4.214 1.821 1.946-0.375 3.661-1.393-0.661 2.054-2.536 3.179 1.661-0.179 3.321-0.893z"></path>
</symbol>
<symbol id="icon-facebook" viewBox="0 0 19 32">
<path d="M17.125 0.214v4.714h-2.804q-1.536 0-2.071 0.643t-0.536 1.929v3.375h5.232l-0.696 5.286h-4.536v13.554h-5.464v-13.554h-4.554v-5.286h4.554v-3.893q0-3.321 1.857-5.152t4.946-1.83q2.625 0 4.071 0.214z"></path>
</symbol>
<symbol id="icon-google-plus" viewBox="0 0 41 32">
<path d="M25.661 16.304q0 3.714-1.554 6.616t-4.429 4.536-6.589 1.634q-2.661 0-5.089-1.036t-4.179-2.786-2.786-4.179-1.036-5.089 1.036-5.089 2.786-4.179 4.179-2.786 5.089-1.036q5.107 0 8.768 3.429l-3.554 3.411q-2.089-2.018-5.214-2.018-2.196 0-4.063 1.107t-2.955 3.009-1.089 4.152 1.089 4.152 2.955 3.009 4.063 1.107q1.482 0 2.723-0.411t2.045-1.027 1.402-1.402 0.875-1.482 0.384-1.321h-7.429v-4.5h12.357q0.214 1.125 0.214 2.179zM41.143 14.125v3.75h-3.732v3.732h-3.75v-3.732h-3.732v-3.75h3.732v-3.732h3.75v3.732h3.732z"></path>
</symbol>
<symbol id="icon-linkedin" viewBox="0 0 27 32">
<path d="M6.232 11.161v17.696h-5.893v-17.696h5.893zM6.607 5.696q0.018 1.304-0.902 2.179t-2.42 0.875h-0.036q-1.464 0-2.357-0.875t-0.893-2.179q0-1.321 0.92-2.188t2.402-0.866 2.375 0.866 0.911 2.188zM27.429 18.714v10.143h-5.875v-9.464q0-1.875-0.723-2.938t-2.259-1.063q-1.125 0-1.884 0.616t-1.134 1.527q-0.196 0.536-0.196 1.446v9.875h-5.875q0.036-7.125 0.036-11.554t-0.018-5.286l-0.018-0.857h5.875v2.571h-0.036q0.357-0.571 0.732-1t1.009-0.929 1.554-0.777 2.045-0.277q3.054 0 4.911 2.027t1.857 5.938z"></path>
</symbol>
<symbol id="icon-youtube" viewBox="0 0 27 32">
<path d="M17.339 22.214v3.768q0 1.196-0.696 1.196-0.411 0-0.804-0.393v-5.375q0.393-0.393 0.804-0.393 0.696 0 0.696 1.196zM23.375 22.232v0.821h-1.607v-0.821q0-1.214 0.804-1.214t0.804 1.214zM6.125 18.339h1.911v-1.679h-5.571v1.679h1.875v10.161h1.786v-10.161zM11.268 28.5h1.589v-8.821h-1.589v6.75q-0.536 0.75-1.018 0.75-0.321 0-0.375-0.375-0.018-0.054-0.018-0.625v-6.5h-1.589v6.982q0 0.875 0.143 1.304 0.214 0.661 1.036 0.661 0.857 0 1.821-1.089v0.964zM18.929 25.857v-3.518q0-1.304-0.161-1.768-0.304-1-1.268-1-0.893 0-1.661 0.964v-3.875h-1.589v11.839h1.589v-0.857q0.804 0.982 1.661 0.982 0.964 0 1.268-0.982 0.161-0.482 0.161-1.786zM24.964 25.679v-0.232h-1.625q0 0.911-0.036 1.089-0.125 0.643-0.714 0.643-0.821 0-0.821-1.232v-1.554h3.196v-1.839q0-1.411-0.482-2.071-0.696-0.911-1.893-0.911-1.214 0-1.911 0.911-0.5 0.661-0.5 2.071v3.089q0 1.411 0.518 2.071 0.696 0.911 1.929 0.911 1.286 0 1.929-0.946 0.321-0.482 0.375-0.964 0.036-0.161 0.036-1.036zM14.107 9.375v-3.75q0-1.232-0.768-1.232t-0.768 1.232v3.75q0 1.25 0.768 1.25t0.768-1.25zM26.946 22.786q0 4.179-0.464 6.25-0.25 1.054-1.036 1.768t-1.821 0.821q-3.286 0.375-9.911 0.375t-9.911-0.375q-1.036-0.107-1.83-0.821t-1.027-1.768q-0.464-2-0.464-6.25 0-4.179 0.464-6.25 0.25-1.054 1.036-1.768t1.839-0.839q3.268-0.357 9.893-0.357t9.911 0.357q1.036 0.125 1.83 0.839t1.027 1.768q0.464 2 0.464 6.25zM9.125 0h1.821l-2.161 7.125v4.839h-1.786v-4.839q-0.25-1.321-1.089-3.786-0.661-1.839-1.161-3.339h1.893l1.268 4.696zM15.732 5.946v3.125q0 1.446-0.5 2.107-0.661 0.911-1.893 0.911-1.196 0-1.875-0.911-0.5-0.679-0.5-2.107v-3.125q0-1.429 0.5-2.089 0.679-0.911 1.875-0.911 1.232 0 1.893 0.911 0.5 0.661 0.5 2.089zM21.714 3.054v8.911h-1.625v-0.982q-0.946 1.107-1.839 1.107-0.821 0-1.054-0.661-0.143-0.429-0.143-1.339v-7.036h1.625v6.554q0 0.589 0.018 0.625 0.054 0.393 0.375 0.393 0.482 0 1.018-0.768v-6.804h1.625z"></path>
</symbol>
<symbol id="icon-instagram" viewBox="0 0 27 32">
<path d="M18.286 16q0-1.893-1.339-3.232t-3.232-1.339-3.232 1.339-1.339 3.232 1.339 3.232 3.232 1.339 3.232-1.339 1.339-3.232zM20.75 16q0 2.929-2.054 4.982t-4.982 2.054-4.982-2.054-2.054-4.982 2.054-4.982 4.982-2.054 4.982 2.054 2.054 4.982zM22.679 8.679q0 0.679-0.482 1.161t-1.161 0.482-1.161-0.482-0.482-1.161 0.482-1.161 1.161-0.482 1.161 0.482 0.482 1.161zM13.714 4.75q-0.125 0-1.366-0.009t-1.884 0-1.723 0.054-1.839 0.179-1.277 0.33q-0.893 0.357-1.571 1.036t-1.036 1.571q-0.196 0.518-0.33 1.277t-0.179 1.839-0.054 1.723 0 1.884 0.009 1.366-0.009 1.366 0 1.884 0.054 1.723 0.179 1.839 0.33 1.277q0.357 0.893 1.036 1.571t1.571 1.036q0.518 0.196 1.277 0.33t1.839 0.179 1.723 0.054 1.884 0 1.366-0.009 1.366 0.009 1.884 0 1.723-0.054 1.839-0.179 1.277-0.33q0.893-0.357 1.571-1.036t1.036-1.571q0.196-0.518 0.33-1.277t0.179-1.839 0.054-1.723 0-1.884-0.009-1.366 0.009-1.366 0-1.884-0.054-1.723-0.179-1.839-0.33-1.277q-0.357-0.893-1.036-1.571t-1.571-1.036q-0.518-0.196-1.277-0.33t-1.839-0.179-1.723-0.054-1.884 0-1.366 0.009zM27.429 16q0 4.089-0.089 5.661-0.179 3.714-2.214 5.75t-5.75 2.214q-1.571 0.089-5.661 0.089t-5.661-0.089q-3.714-0.179-5.75-2.214t-2.214-5.75q-0.089-1.571-0.089-5.661t0.089-5.661q0.179-3.714 2.214-5.75t5.75-2.214q1.571-0.089 5.661-0.089t5.661 0.089q3.714 0.179 5.75 2.214t2.214 5.75q0.089 1.571 0.089 5.661z"></path>
</symbol>
<symbol id="icon-flickr" viewBox="0 0 27 32">
<path d="M22.286 2.286q2.125 0 3.634 1.509t1.509 3.634v17.143q0 2.125-1.509 3.634t-3.634 1.509h-17.143q-2.125 0-3.634-1.509t-1.509-3.634v-17.143q0-2.125 1.509-3.634t3.634-1.509h17.143zM12.464 16q0-1.571-1.107-2.679t-2.679-1.107-2.679 1.107-1.107 2.679 1.107 2.679 2.679 1.107 2.679-1.107 1.107-2.679zM22.536 16q0-1.571-1.107-2.679t-2.679-1.107-2.679 1.107-1.107 2.679 1.107 2.679 2.679 1.107 2.679-1.107 1.107-2.679z"></path>
</symbol>
<symbol id="icon-skype" viewBox="0 0 27 32">
<path d="M20.946 18.982q0-0.893-0.348-1.634t-0.866-1.223-1.304-0.875-1.473-0.607-1.563-0.411l-1.857-0.429q-0.536-0.125-0.786-0.188t-0.625-0.205-0.536-0.286-0.295-0.375-0.134-0.536q0-1.375 2.571-1.375 0.768 0 1.375 0.214t0.964 0.509 0.679 0.598 0.714 0.518 0.857 0.214q0.839 0 1.348-0.571t0.509-1.375q0-0.982-1-1.777t-2.536-1.205-3.25-0.411q-1.214 0-2.357 0.277t-2.134 0.839-1.589 1.554-0.598 2.295q0 1.089 0.339 1.902t1 1.348 1.429 0.866 1.839 0.58l2.607 0.643q1.607 0.393 2 0.643 0.571 0.357 0.571 1.071 0 0.696-0.714 1.152t-1.875 0.455q-0.911 0-1.634-0.286t-1.161-0.688-0.813-0.804-0.821-0.688-0.964-0.286q-0.893 0-1.348 0.536t-0.455 1.339q0 1.643 2.179 2.813t5.196 1.17q1.304 0 2.5-0.33t2.188-0.955 1.58-1.67 0.589-2.348zM27.429 22.857q0 2.839-2.009 4.848t-4.848 2.009q-2.321 0-4.179-1.429-1.375 0.286-2.679 0.286-2.554 0-4.884-0.991t-4.018-2.679-2.679-4.018-0.991-4.884q0-1.304 0.286-2.679-1.429-1.857-1.429-4.179 0-2.839 2.009-4.848t4.848-2.009q2.321 0 4.179 1.429 1.375-0.286 2.679-0.286 2.554 0 4.884 0.991t4.018 2.679 2.679 4.018 0.991 4.884q0 1.304-0.286 2.679 1.429 1.857 1.429 4.179z"></path>
</symbol>
<symbol id="icon-pinterest" viewBox="0 0 23 32">
<path d="M0 10.661q0-1.929 0.67-3.634t1.848-2.973 2.714-2.196 3.304-1.393 3.607-0.464q2.821 0 5.25 1.188t3.946 3.455 1.518 5.125q0 1.714-0.339 3.357t-1.071 3.161-1.786 2.67-2.589 1.839-3.375 0.688q-1.214 0-2.411-0.571t-1.714-1.571q-0.179 0.696-0.5 2.009t-0.42 1.696-0.366 1.268-0.464 1.268-0.571 1.116-0.821 1.384-1.107 1.545l-0.25 0.089-0.161-0.179q-0.268-2.804-0.268-3.357 0-1.643 0.384-3.688t1.188-5.134 0.929-3.625q-0.571-1.161-0.571-3.018 0-1.482 0.929-2.786t2.357-1.304q1.089 0 1.696 0.723t0.607 1.83q0 1.179-0.786 3.411t-0.786 3.339q0 1.125 0.804 1.866t1.946 0.741q0.982 0 1.821-0.446t1.402-1.214 1-1.696 0.679-1.973 0.357-1.982 0.116-1.777q0-3.089-1.955-4.813t-5.098-1.723q-3.571 0-5.964 2.313t-2.393 5.866q0 0.786 0.223 1.518t0.482 1.161 0.482 0.813 0.223 0.545q0 0.5-0.268 1.304t-0.661 0.804q-0.036 0-0.304-0.054-0.911-0.268-1.616-1t-1.089-1.688-0.58-1.929-0.196-1.902z"></path>
</symbol>
</defs>
</svg>
